# xmcd
#
# Track frame offsets:
#	150
#	12581
#	26841
#	42068
#	52547
#	65634
#	77914
#	90531
#	101606
#	112746
#	123757
#	134526
#	149027
#
# Disc length: 2199 seconds
# Revision: 0
# Processed by: cddbd v1.5.2PL0 Copyright (c) Steve Scherf et al.
# Submitted via: dBpowerAMP V12.0
#
DISCID=aa08950d
DTITLE=Freeman and Williams - Freeman and Williams
DYEAR=2012
DGENRE=
TTITLE0=Always Looking Back
TTITLE1=Old Wiley
TTITLE2=The Grandpa That i Know
TTITLE3=Wrong Road Again
TTITLE4=I Surrender All
TTITLE5=June Apple
TTITLE6=When Halley Came To Jackson
TTITLE7=John Henry
TTITLE8=In Half The Time 
TTITLE9=Too Long
TTITLE10=Don't Think I'll Cry
TTITLE11=My Reward
TTITLE12=Muddy River
EXTD=
EXTT0=
EXTT1=
EXTT2=
EXTT3=
EXTT4=
EXTT5=
EXTT6=
EXTT7=
EXTT8=
EXTT9=
EXTT10=
EXTT11=
EXTT12=
PLAYORDER=
